<svg xmlns="http://www.w3.org/2000/svg" xmlns:svg="http://www.w3.org/2000/svg" xmlns:xlink="http://www.w3.org/1999/xlink" id="svg5" width="100" height="60" version="1.1" viewBox="0 0 26.458 15.875"><defs id="defs2"><filter id="selectable_hidder_filter" width="1.014" height="1.025" x="-.007" y="-.013" style="color-interpolation-filters:sRGB"><feComposite id="boolops_hidder_primitive" in="BackgroundImage" in2="SourceGraphic" k1="0" k2="0" k3="0" k4="0" operator="arithmetic" result="composite1"/></filter><rect id="rect6947" width="46.09" height="130" x="-20" y="-20"/></defs><g id="layer1"><rect style="opacity:.00100002;fill:#fff;fill-opacity:.01;stroke:none;stroke-width:6.77994;stroke-linejoin:round" id="UnitAttacked" width="26.458" height="15.875" x="0" y="0"/><path style="fill:#fff;fill-opacity:1;stroke:#000;stroke-width:.265;stroke-linecap:butt;stroke-linejoin:miter;stroke-miterlimit:4;stroke-dasharray:.795,.795;stroke-dashoffset:0;stroke-opacity:1" id="path880" d="m -25.422526,-10.583984 2.404297,2.646484 -2.404297,2.646484 h 1.851562 l 2.404297,-2.646484 -2.404297,-2.646484 z"/><path id="path988" d="m -25.422526,-10.583984 2.404297,2.646484 -2.404297,2.646484 h 1.851562 l 2.404297,-2.646484 -2.404297,-2.646484 z" transform="translate(25.423047,15.875651)" style="fill:#ff2000;fill-opacity:1;opacity:.6"/><use id="use1191" width="100%" height="100%" x="0" y="0" transform="translate(3.1717074,-6.5066667e-4)" xlink:href="#path988" style="fill:red;fill-opacity:1"/><use id="use1193" width="100%" height="100%" x="0" y="0" transform="translate(22.201953,-6.5066667e-4)" xlink:href="#path988"/><use id="use1195" width="100%" height="100%" x="0" y="0" transform="translate(6.3434151,-6.5066667e-4)" xlink:href="#path988" style="fill:red;fill-opacity:1"/><use id="use1197" width="100%" height="100%" x="0" y="0" transform="translate(9.5151227,-6.5066667e-4)" xlink:href="#path988"/><use id="use1199" width="100%" height="100%" x="0" y="0" transform="translate(15.858538,-6.5066667e-4)" xlink:href="#path988"/><use id="use1201" width="100%" height="100%" x="0" y="0" transform="translate(19.030246,-6.5066667e-4)" xlink:href="#path988"/><text id="text6945" transform="matrix(0.26458333,0,0,0.26458333,-14.840494,-5.291667)" xml:space="preserve" style="font-size:2.66667px;line-height:1.25;font-family:sans-serif;letter-spacing:0;word-spacing:0;white-space:pre;shape-inside:url(#rect6947)"><tspan id="tspan7383" x="-20" y="-17.641">All the arrows are LPE clones of </tspan><tspan id="tspan7385" x="-20" y="-14.307">the ones on the left. Edit these to </tspan><tspan id="tspan7387" x="-20" y="-10.974">change the shape. </tspan><tspan id="tspan7389" x="-20" y="-7.641"> </tspan><tspan id="tspan7391" x="-20" y="-4.307">CTRL+SHIFT+A to evenly space in </tspan><tspan id="tspan7393" x="-20" y="-.974">each group if you change the </tspan><tspan id="tspan7395" x="-20" y="2.359">number or arrow shape. </tspan><tspan id="tspan7397" x="-20" y="5.693"> </tspan><tspan id="tspan7399" x="-20" y="9.026">Additionally all the arrows per </tspan><tspan id="tspan7401" x="-20" y="12.359">group are object clones of the </tspan><tspan id="tspan7403" x="-20" y="15.693">left-most one. So edit that one to </tspan><tspan id="tspan7405" x="-20" y="19.026">change colour and style. </tspan><tspan id="tspan7407" x="-20" y="22.359"> </tspan><tspan id="tspan7409" x="-20" y="25.693">Behind every texture is a nearly </tspan><tspan id="tspan7411" x="-20" y="29.026">transparent rectangle. This lets </tspan><tspan id="tspan7413" x="-20" y="32.359">you click the background then use </tspan><tspan id="tspan7415" x="-20" y="35.693">&quot;Export PNG Image&quot; → &quot;Selection&quot; </tspan><tspan id="tspan7417" x="-20" y="39.026">per image. Make sure the width is </tspan><tspan id="tspan7419" x="-20" y="42.359">100 and height is 60. </tspan><tspan id="tspan7421" x="-20" y="45.693"> </tspan><tspan id="tspan7423" x="-20" y="49.026">DPI and out dir have been set for </tspan><tspan id="tspan7425" x="-20" y="52.359">each rectangle. You should be </tspan><tspan id="tspan7427" x="-20" y="55.693">able to just click through them </tspan><tspan id="tspan7429" x="-20" y="59.026">and hit &quot;Export&quot; from the </tspan><tspan id="tspan7431" x="-20" y="62.359">&quot;Selection&quot; dialog. &quot;Batch export&quot; </tspan><tspan id="tspan7433" x="-20" y="65.693">also works. They&apos;ll go into &quot;./</tspan><tspan id="tspan7435" x="-20" y="69.026">SVGExport&quot;; Copy them to the </tspan><tspan id="tspan7437" x="-20" y="72.359">tileset. </tspan><tspan id="tspan7439" x="-20" y="75.693"> </tspan><tspan id="tspan7441" x="-20" y="79.026"> </tspan><tspan id="tspan7443" x="-20" y="82.359">I sampled from a screenshot to </tspan><tspan id="tspan7445" x="-20" y="85.693">make sure all the colours have a </tspan><tspan id="tspan7447" x="-20" y="89.026">good RGB distance from </tspan><tspan id="tspan7449" x="-20" y="92.359">FantasyHex terrain colours. If you </tspan><tspan id="tspan7451" x="-20" y="95.693">change any colours, please make </tspan><tspan id="tspan7453" x="-20" y="99.026">sure they will still be visible in the </tspan><tspan id="tspan7455" x="-20" y="102.359">game!</tspan></text><rect style="opacity:.00100002;fill:#fff;fill-opacity:.01;stroke:none;stroke-width:6.35;stroke-linejoin:round" id="rect33887" width="26.458" height="15.875" x="0" y="15.875"/><path id="path33889" d="m -25.422526,-10.583984 2.404297,2.646484 -2.404297,2.646484 h 1.851562 l 2.404297,-2.646484 -2.404297,-2.646484 z" transform="translate(25.4,31.75)" style="opacity:.6;fill:#00ff78;fill-opacity:1"/><use id="use33895" width="100%" height="100%" x="0" y="0" transform="translate(22.224998)" xlink:href="#path33889"/><rect style="opacity:.00100002;fill:#fff;fill-opacity:.01;stroke:none;stroke-width:6.35;stroke-linejoin:round" id="rect33897" width="26.458" height="15.875" x="0" y="31.75"/><path id="path33899" d="m -25.422526,-10.583984 2.404297,2.646484 -2.404297,2.646484 h 1.851562 l 2.404297,-2.646484 -2.404297,-2.646484 z" transform="translate(25.4,47.625)" style="opacity:.6;fill:#5a82ff;fill-opacity:1"/><use id="use33905" width="100%" height="100%" x="0" y="0" transform="translate(22.224998)" xlink:href="#path33899"/><use id="use33907" width="100%" height="100%" x="0" y="0" transform="translate(19.049998)" xlink:href="#path33889"/><use id="use33909" width="100%" height="100%" x="0" y="0" transform="translate(19.049998)" xlink:href="#path33899"/><use id="use34019" width="100%" height="100%" x="0" y="0" transform="translate(15.874999)" xlink:href="#path33889"/><use id="use34021" width="100%" height="100%" x="0" y="0" transform="translate(15.874999)" xlink:href="#path33899"/><use id="use34023" width="100%" height="100%" x="0" y="0" transform="translate(9.5249993)" xlink:href="#path33889"/><use id="use34025" width="100%" height="100%" x="0" y="0" transform="translate(9.5249993)" xlink:href="#path33899"/><use id="use34027" width="100%" height="100%" x="0" y="0" transform="translate(3.1750001)" xlink:href="#path33889"/><use id="use34029" width="100%" height="100%" x="0" y="0" transform="translate(3.1750001)" xlink:href="#path33899"/><use id="use34031" width="100%" height="100%" x="0" y="0" transform="translate(6.3499998)" xlink:href="#path33889"/><use id="use34033" width="100%" height="100%" x="0" y="0" transform="translate(6.3499998)" xlink:href="#path33899"/><use id="use34035" width="100%" height="100%" x="0" y="0" transform="translate(12.699999)" xlink:href="#path33889"/><use id="use34037" width="100%" height="100%" x="0" y="0" transform="translate(12.699999)" xlink:href="#path33899"/><use id="use34039" width="100%" height="100%" x="0" y="0" transform="translate(12.68683,-6.5066667e-4)" xlink:href="#path988"/><rect style="opacity:.00100002;fill:#fff;fill-opacity:.01;stroke:none;stroke-width:6.35;stroke-linejoin:round" id="rect51110" width="26.458" height="15.875" x="0" y="79.375"/><path style="fill:#fff;fill-opacity:1;stroke:#000;stroke-width:.265;stroke-linecap:butt;stroke-linejoin:miter;stroke-miterlimit:4;stroke-dasharray:.795,.795;stroke-dashoffset:0;stroke-opacity:1" id="path52356" d="M -23.591146,-1.3222656 -22.489583,0 -23.591146,1.3222653 h 1.320964 L -21.166667,0 -22.270182,-1.3222656 Z"/><path id="path53893" d="M -23.591146,-1.3222656 -22.489583,0 -23.591146,1.3222653 h 1.320964 L -21.166667,0 -22.270182,-1.3222656 Z" transform="translate(23.547917,87.312498)" style="opacity:.6;fill:#fff;fill-opacity:1"/><use id="use53895" width="100%" height="100%" x="0" y="0" transform="translate(24.077087)" xlink:href="#path53893"/><use id="use53897" width="100%" height="100%" x="0" y="0" transform="translate(21.888261)" xlink:href="#path53893"/><use id="use53899" width="100%" height="100%" x="0" y="0" transform="translate(19.699435,6.5092354e-4)" xlink:href="#path53893"/><use id="use53901" width="100%" height="100%" x="0" y="0" transform="translate(17.510609)" xlink:href="#path53893"/><use id="use53903" width="100%" height="100%" x="0" y="0" transform="translate(15.321783)" xlink:href="#path53893"/><use id="use53905" width="100%" height="100%" x="0" y="0" transform="translate(13.132957)" xlink:href="#path53893"/><use id="use53907" width="100%" height="100%" x="0" y="0" transform="translate(10.944131)" xlink:href="#path53893"/><use id="use53909" width="100%" height="100%" x="0" y="0" transform="translate(4.3776517)" xlink:href="#path53893"/><use id="use53911" width="100%" height="100%" x="0" y="0" transform="translate(2.1888257)" xlink:href="#path53893"/><use id="use53913" width="100%" height="100%" x="0" y="0" transform="translate(6.5664787)" xlink:href="#path53893"/><use id="use53915" width="100%" height="100%" x="0" y="0" transform="translate(8.7553047)" xlink:href="#path53893"/><rect style="opacity:.00100002;fill:#fff;fill-opacity:.01;stroke:none;stroke-width:6.35;stroke-linejoin:round" id="rect54126" width="26.458" height="15.875" x="0" y="95.25"/><path style="opacity:.6;fill:none;fill-opacity:.0054864;stroke:#ff2000;stroke-width:1.05833;stroke-linecap:round;stroke-linejoin:miter;stroke-miterlimit:4;stroke-dasharray:none;stroke-opacity:1" id="path54609" d="M 0.52916779,103.18749 H 25.400001"/><path style="fill:#fff;fill-opacity:1;stroke:#000;stroke-width:.265;stroke-linecap:butt;stroke-linejoin:miter;stroke-miterlimit:4;stroke-dasharray:.795,.795;stroke-dashoffset:0;stroke-opacity:1" id="path56144" d="m -23.01875,3.96875 v 2.6445309 l 0.748568,6.511e-4 1.103515,-1.3222653 -1.103515,-1.3222656 z"/><path id="path56847" d="m -23.01875,3.96875 v 2.6445309 l 0.748568,6.511e-4 1.103515,-1.3222653 -1.103515,-1.3222656 z" transform="translate(23.018751,97.895834)" style="opacity:.6;fill:#ff2000;fill-opacity:1"/><use id="use56849" width="100%" height="100%" x="0" y="0" transform="translate(24.606252)" xlink:href="#path56847"/><use id="use56851" width="100%" height="100%" x="0" y="0" transform="translate(2.7340277)" xlink:href="#path56847"/><use id="use56853" width="100%" height="100%" x="0" y="0" transform="translate(5.4680547)" xlink:href="#path56847"/><use id="use56855" width="100%" height="100%" x="0" y="0" transform="translate(13.670139)" xlink:href="#path56847"/><use id="use56857" width="100%" height="100%" x="0" y="0" transform="translate(16.404168)" xlink:href="#path56847"/><use id="use56859" width="100%" height="100%" x="0" y="0" transform="translate(19.138195)" xlink:href="#path56847"/><use id="use56861" width="100%" height="100%" x="0" y="0" transform="translate(21.872224)" xlink:href="#path56847"/><use id="use57348" width="100%" height="100%" x="0" y="0" transform="translate(8.2020827)" xlink:href="#path56847"/><use id="use57350" width="100%" height="100%" x="0" y="0" transform="translate(10.936111)" xlink:href="#path56847"/><rect style="opacity:.00100002;fill:#fff;fill-opacity:.01;stroke:none;stroke-width:6.35;stroke-linejoin:round" id="rect57486" width="26.458" height="15.875" x="0" y="47.625"/><rect style="opacity:.00100002;fill:#fff;fill-opacity:.01;stroke:none;stroke-width:6.35;stroke-linejoin:round" id="rect57488" width="26.458" height="15.875" x="0" y="63.5"/><path id="path57626" d="m -25.422526,-10.583984 2.404297,2.646484 -2.404297,2.646484 h 1.851562 l 2.404297,-2.646484 -2.404297,-2.646484 z" transform="translate(25.399479,63.5)" style="opacity:.6;fill:#fff;fill-opacity:1"/><use id="use57632" width="100%" height="100%" x="0" y="0" transform="translate(22.225521)" xlink:href="#path57626"/><use id="use57634" width="100%" height="100%" x="0" y="0" transform="translate(3.1750745)" xlink:href="#path57626"/><use id="use57636" width="100%" height="100%" x="0" y="0" transform="translate(6.3501489)" xlink:href="#path57626"/><use id="use57638" width="100%" height="100%" x="0" y="0" transform="translate(9.5252236)" xlink:href="#path57626"/><use id="use57640" width="100%" height="100%" x="0" y="0" transform="translate(12.700298)" xlink:href="#path57626"/><use id="use57642" width="100%" height="100%" x="0" y="0" transform="translate(15.875373)" xlink:href="#path57626"/><use id="use57644" width="100%" height="100%" x="0" y="0" transform="translate(19.050447)" xlink:href="#path57626"/><path style="fill:none;stroke:#fff;stroke-width:1.5875;stroke-linecap:round;stroke-linejoin:miter;stroke-opacity:1;stroke-miterlimit:4;stroke-dasharray:none;opacity:.6" id="path57950" d="M 3.175,55.562499 H 25.4"/><path style="fill:none;stroke:#000;stroke-width:.206452;stroke-linecap:butt;stroke-linejoin:miter;stroke-miterlimit:4;stroke-dasharray:.825807,.412904;stroke-dashoffset:0;stroke-opacity:1" id="path60405" d="m -27.536226,12.45532 c 0,0 0.31558,0.538544 1.10453,0.538544 0.78895,0 2.840221,-2.692719 2.840221,-2.692719"/><path id="path65482" d="m -27.536226,12.45532 c 0,0 0.31558,0.538544 1.10453,0.538544 0.78895,0 2.840221,-2.692719 2.840221,-2.692719" style="opacity:.6;fill:none;stroke:#fffcff;stroke-width:.92604167;stroke-linecap:round;stroke-miterlimit:4;stroke-dasharray:none;stroke-opacity:1" transform="translate(25.40006,60.854167)"/><use id="use65703" width="100%" height="100%" x="0" y="0" transform="matrix(1,0,0,-1,12.75953,142.875)" xlink:href="#path65482"/><use id="use65705" width="100%" height="100%" x="0" y="0" transform="translate(13.919488)" xlink:href="#path65482"/><use id="use65723" width="100%" height="100%" x="0" y="0" transform="matrix(1,0,0,-1,10.439616,142.875)" xlink:href="#path65482"/><use id="use65725" width="100%" height="100%" x="0" y="0" transform="translate(11.599573)" xlink:href="#path65482"/><use id="use65727" width="100%" height="100%" x="0" y="0" transform="matrix(1,0,0,-1,8.1197014,142.875)" xlink:href="#path65482"/><use id="use65729" width="100%" height="100%" x="0" y="0" transform="translate(9.2796586)" xlink:href="#path65482"/><use id="use65731" width="100%" height="100%" x="0" y="0" transform="matrix(1,0,0,-1,5.7997866,142.875)" xlink:href="#path65482"/><use id="use65733" width="100%" height="100%" x="0" y="0" transform="translate(6.9597441)" xlink:href="#path65482"/><use id="use65735" width="100%" height="100%" x="0" y="0" transform="matrix(1,0,0,-1,3.4798721,142.875)" xlink:href="#path65482"/><use id="use65737" width="100%" height="100%" x="0" y="0" transform="translate(4.6398293)" xlink:href="#path65482"/><use id="use65739" width="100%" height="100%" x="0" y="0" transform="matrix(1,0,0,-1,1.1599573,142.875)" xlink:href="#path65482"/><use id="use65741" width="100%" height="100%" x="0" y="0" transform="translate(2.3199146)" xlink:href="#path65482"/><use id="use68716" width="100%" height="100%" x="0" y="0" transform="matrix(1,0,0,-1,15.079445,142.875)" xlink:href="#path65482"/><use id="use68718" width="100%" height="100%" x="0" y="0" transform="translate(16.239402)" xlink:href="#path65482"/><use id="use1271" width="100%" height="100%" x="0" y="0" transform="matrix(1,0,0,-1,24.359101,142.875)" xlink:href="#path65482"/><use id="use1273" width="100%" height="100%" x="0" y="0" transform="translate(25.519057)" xlink:href="#path65482"/><use id="use1275" width="100%" height="100%" x="0" y="0" transform="matrix(1,0,0,-1,22.039188,142.875)" xlink:href="#path65482"/><use id="use1277" width="100%" height="100%" x="0" y="0" transform="translate(23.199145)" xlink:href="#path65482"/><use id="use1279" width="100%" height="100%" x="0" y="0" transform="matrix(1,0,0,-1,19.719276,142.875)" xlink:href="#path65482"/><use id="use1281" width="100%" height="100%" x="0" y="0" transform="translate(20.879232)" xlink:href="#path65482"/><use id="use1283" width="100%" height="100%" x="0" y="0" transform="matrix(1,0,0,-1,17.39936,142.875)" xlink:href="#path65482"/><use id="use1285" width="100%" height="100%" x="0" y="0" transform="translate(18.559319)" xlink:href="#path65482"/></g><metadata id="metadata18638"/></svg>