<svg xmlns="http://www.w3.org/2000/svg" xmlns:svg="http://www.w3.org/2000/svg" id="svg259" width="128" height="128" version="1.1" viewBox="0 0 33.867 33.867"><g id="layer1"><circle id="path263" cx="16.933" cy="16.933" r="16.933" style="stroke-width:.264583;fill:#fed500;fill-opacity:1"/><path id="rect1072" style="fill:#e00000;fill-opacity:1;stroke-width:.264583" d="M 6.0564779 3.96875 A 16.933332 16.933332 0 0 0 2.7672729 7.6729167 L 31.108695 7.6729167 A 16.933332 16.933332 0 0 0 27.825175 3.96875 L 6.0564779 3.96875 z"/><path id="rect1178" style="fill:#e00000;fill-opacity:1;stroke-width:.264583" d="M 0.94981283 11.377083 A 16.933332 16.933332 0 0 0 0.11368815 15.08125 L 33.763831 15.08125 A 16.933332 16.933332 0 0 0 32.929256 11.377083 L 0.94981283 11.377083 z"/><path id="rect1180" style="fill:#e00000;fill-opacity:1;stroke-width:.264583" d="M 0.11368815 18.785417 A 16.933332 16.933332 0 0 0 0.94981283 22.489583 L 32.916854 22.489583 A 16.933332 16.933332 0 0 0 33.752979 18.785417 L 0.11368815 18.785417 z"/><path id="rect1182" style="fill:#e00000;fill-opacity:1;stroke-width:.264583" d="M 2.7672729 26.19375 A 16.933332 16.933332 0 0 0 6.0564779 29.897917 L 27.810189 29.897917 A 16.933332 16.933332 0 0 0 31.099394 26.19375 L 2.7672729 26.19375 z"/></g></svg>